<mxfile host="app.diagrams.net" modified="2023-09-09T23:34:11.707Z" agent="Mozilla/5.0 (Macintosh; Intel Mac OS X 10_15_7) AppleWebKit/537.36 (KHTML, like Gecko) Chrome/116.0.0.0 Safari/537.36" etag="_JBLuYdUPS3PmMDtv1qR" version="21.6.8" type="google">
  <diagram name="Page-1" id="taVJ35tq75rkEa6SwReA">
    <mxGraphModel grid="1" page="1" gridSize="10" guides="1" tooltips="1" connect="1" arrows="1" fold="1" pageScale="1" pageWidth="850" pageHeight="1100" math="0" shadow="0">
      <root>
        <mxCell id="0" />
        <mxCell id="1" parent="0" />
        <mxCell id="1ZHfHGlW6hKa8Q7_D9X9-38" value="" style="rounded=1;whiteSpace=wrap;html=1;fillColor=#fff2cc;strokeColor=#d6b656;" vertex="1" parent="1">
          <mxGeometry x="30" y="30" width="1010" height="550" as="geometry" />
        </mxCell>
        <mxCell id="1ZHfHGlW6hKa8Q7_D9X9-26" value="" style="rounded=1;arcSize=10;dashed=0;fillColor=#dae8fc;strokeWidth=2;strokeColor=#6c8ebf;" vertex="1" parent="1">
          <mxGeometry x="320" y="60" width="680" height="480" as="geometry" />
        </mxCell>
        <mxCell id="1ZHfHGlW6hKa8Q7_D9X9-28" value="" style="rounded=1;arcSize=10;dashed=1;strokeColor=#ff0000;fillColor=none;gradientColor=none;dashPattern=8 4;strokeWidth=2;" vertex="1" parent="1">
          <mxGeometry x="537.5" y="95" width="442.5" height="415" as="geometry" />
        </mxCell>
        <mxCell id="1ZHfHGlW6hKa8Q7_D9X9-24" value="" style="rounded=1;arcSize=10;dashed=0;fillColor=#d5e8d4;strokeWidth=2;strokeColor=#82b366;" vertex="1" parent="1">
          <mxGeometry x="566.25" y="109.25" width="385" height="349.5" as="geometry" />
        </mxCell>
        <mxCell id="1ZHfHGlW6hKa8Q7_D9X9-27" value="" style="dashed=0;html=1;shape=mxgraph.aws3.virtual_private_cloud;fillColor=#F58536;gradientColor=none;dashed=0;" vertex="1" parent="1">
          <mxGeometry x="370" y="95" width="82" height="50" as="geometry" />
        </mxCell>
        <mxCell id="1ZHfHGlW6hKa8Q7_D9X9-34" value="" style="outlineConnect=0;dashed=0;verticalLabelPosition=bottom;verticalAlign=top;align=center;html=1;shape=mxgraph.aws3.vpn_gateway;fillColor=#F58534;gradientColor=none;" vertex="1" parent="1">
          <mxGeometry x="280.5" y="248" width="69" height="72" as="geometry" />
        </mxCell>
        <mxCell id="1ZHfHGlW6hKa8Q7_D9X9-35" value="" style="outlineConnect=0;dashed=0;verticalLabelPosition=bottom;verticalAlign=top;align=center;html=1;shape=mxgraph.aws3.vpn_connection;fillColor=#F58534;gradientColor=none;" vertex="1" parent="1">
          <mxGeometry x="180.75" y="291" width="58.5" height="48" as="geometry" />
        </mxCell>
        <mxCell id="1ZHfHGlW6hKa8Q7_D9X9-37" value="" style="outlineConnect=0;dashed=0;verticalLabelPosition=bottom;verticalAlign=top;align=center;html=1;shape=mxgraph.aws3.management_console;fillColor=#939494;gradientColor=none;" vertex="1" parent="1">
          <mxGeometry x="80" y="252.5" width="63" height="63" as="geometry" />
        </mxCell>
        <mxCell id="1ZHfHGlW6hKa8Q7_D9X9-39" value="" style="outlineConnect=0;dashed=0;verticalLabelPosition=bottom;verticalAlign=top;align=center;html=1;shape=mxgraph.aws3.internet_2;fillColor=#939494;gradientColor=none;" vertex="1" parent="1">
          <mxGeometry x="80" y="95" width="107" height="73.5" as="geometry" />
        </mxCell>
        <mxCell id="1ZHfHGlW6hKa8Q7_D9X9-40" value="Internet" style="text;html=1;strokeColor=none;fillColor=none;align=center;verticalAlign=middle;whiteSpace=wrap;rounded=0;fontSize=18;" vertex="1" parent="1">
          <mxGeometry x="103.5" y="168.5" width="60" height="30" as="geometry" />
        </mxCell>
        <mxCell id="1ZHfHGlW6hKa8Q7_D9X9-45" value="" style="outlineConnect=0;dashed=0;verticalLabelPosition=bottom;verticalAlign=top;align=center;html=1;shape=mxgraph.aws3.permissions_2;fillColor=#B4B5B5;gradientColor=none;" vertex="1" parent="1">
          <mxGeometry x="435" y="245" width="55" height="78" as="geometry" />
        </mxCell>
        <mxCell id="1ZHfHGlW6hKa8Q7_D9X9-47" value="&lt;font style=&quot;font-size: 18px;&quot;&gt;Security&lt;br&gt;Group&lt;/font&gt;" style="text;html=1;strokeColor=none;fillColor=none;align=center;verticalAlign=middle;whiteSpace=wrap;rounded=0;" vertex="1" parent="1">
          <mxGeometry x="725.3" y="470" width="60" height="30" as="geometry" />
        </mxCell>
        <mxCell id="1ZHfHGlW6hKa8Q7_D9X9-48" value="&lt;font style=&quot;font-size: 16px;&quot;&gt;VPC Subnet&lt;/font&gt;" style="text;html=1;strokeColor=none;fillColor=none;align=center;verticalAlign=middle;whiteSpace=wrap;rounded=0;" vertex="1" parent="1">
          <mxGeometry x="693.75" y="135" width="130" height="30" as="geometry" />
        </mxCell>
        <mxCell id="1ZHfHGlW6hKa8Q7_D9X9-49" value="&lt;font style=&quot;font-size: 16px;&quot;&gt;IAM Permissions&lt;/font&gt;" style="text;html=1;strokeColor=none;fillColor=none;align=center;verticalAlign=middle;whiteSpace=wrap;rounded=0;" vertex="1" parent="1">
          <mxGeometry x="432.5" y="208.5" width="60" height="30" as="geometry" />
        </mxCell>
        <mxCell id="1ZHfHGlW6hKa8Q7_D9X9-50" value="" style="endArrow=classic;startArrow=classic;html=1;rounded=0;entryX=0;entryY=0.5;entryDx=0;entryDy=0;entryPerimeter=0;exitX=1;exitY=0.5;exitDx=0;exitDy=0;exitPerimeter=0;strokeWidth=2;" edge="1" parent="1" source="1ZHfHGlW6hKa8Q7_D9X9-34" target="1ZHfHGlW6hKa8Q7_D9X9-45">
          <mxGeometry width="50" height="50" relative="1" as="geometry">
            <mxPoint x="360" y="330" as="sourcePoint" />
            <mxPoint x="410" y="280" as="targetPoint" />
          </mxGeometry>
        </mxCell>
        <mxCell id="1ZHfHGlW6hKa8Q7_D9X9-51" value="" style="endArrow=classic;startArrow=classic;html=1;rounded=0;exitX=1;exitY=0.5;exitDx=0;exitDy=0;exitPerimeter=0;strokeWidth=2;" edge="1" parent="1" source="1ZHfHGlW6hKa8Q7_D9X9-45" target="1ZHfHGlW6hKa8Q7_D9X9-24">
          <mxGeometry width="50" height="50" relative="1" as="geometry">
            <mxPoint x="510" y="300" as="sourcePoint" />
            <mxPoint x="570" y="240" as="targetPoint" />
          </mxGeometry>
        </mxCell>
        <mxCell id="1ZHfHGlW6hKa8Q7_D9X9-52" value="" style="shape=flexArrow;endArrow=classic;startArrow=classic;html=1;rounded=0;entryX=0;entryY=0.5;entryDx=0;entryDy=0;entryPerimeter=0;strokeColor=#FFB366;fillColor=#F58534;" edge="1" parent="1" source="1ZHfHGlW6hKa8Q7_D9X9-37" target="1ZHfHGlW6hKa8Q7_D9X9-34">
          <mxGeometry width="100" height="100" relative="1" as="geometry">
            <mxPoint x="130" y="400" as="sourcePoint" />
            <mxPoint x="230" y="300" as="targetPoint" />
          </mxGeometry>
        </mxCell>
        <mxCell id="1ZHfHGlW6hKa8Q7_D9X9-55" value="&lt;font style=&quot;font-size: 16px;&quot;&gt;VPN Tunnel&lt;/font&gt;" style="text;html=1;strokeColor=none;fillColor=none;align=center;verticalAlign=middle;whiteSpace=wrap;rounded=0;" vertex="1" parent="1">
          <mxGeometry x="180" y="350" width="60" height="30" as="geometry" />
        </mxCell>
        <mxCell id="1ZHfHGlW6hKa8Q7_D9X9-56" value="&lt;font style=&quot;font-size: 16px;&quot;&gt;VPN&amp;nbsp; Gateway&lt;/font&gt;" style="text;html=1;strokeColor=none;fillColor=none;align=center;verticalAlign=middle;whiteSpace=wrap;rounded=0;strokeWidth=6;" vertex="1" parent="1">
          <mxGeometry x="260" y="218" width="150" height="30" as="geometry" />
        </mxCell>
        <mxCell id="1ZHfHGlW6hKa8Q7_D9X9-57" value="&lt;font style=&quot;font-size: 16px;&quot;&gt;Client Endpoint&lt;/font&gt;" style="text;html=1;strokeColor=none;fillColor=none;align=center;verticalAlign=middle;whiteSpace=wrap;rounded=0;" vertex="1" parent="1">
          <mxGeometry x="80" y="330" width="60" height="30" as="geometry" />
        </mxCell>
        <mxCell id="1ZHfHGlW6hKa8Q7_D9X9-58" value="Accounting 1" style="text;html=1;strokeColor=none;fillColor=none;align=center;verticalAlign=middle;whiteSpace=wrap;rounded=0;" vertex="1" parent="1">
          <mxGeometry x="585" y="242" width="80" height="30" as="geometry" />
        </mxCell>
        <mxCell id="1ZHfHGlW6hKa8Q7_D9X9-59" value="CFO" style="text;html=1;strokeColor=none;fillColor=none;align=center;verticalAlign=middle;whiteSpace=wrap;rounded=0;" vertex="1" parent="1">
          <mxGeometry x="680" y="242" width="75" height="30" as="geometry" />
        </mxCell>
        <mxCell id="1ZHfHGlW6hKa8Q7_D9X9-61" value="" style="outlineConnect=0;dashed=0;verticalLabelPosition=bottom;verticalAlign=top;align=center;html=1;shape=mxgraph.aws3.instance_with_cloudwatch;fillColor=#F58534;gradientColor=none;" vertex="1" parent="1">
          <mxGeometry x="595" y="179" width="60" height="63" as="geometry" />
        </mxCell>
        <mxCell id="1ZHfHGlW6hKa8Q7_D9X9-62" value="" style="outlineConnect=0;dashed=0;verticalLabelPosition=bottom;verticalAlign=top;align=center;html=1;shape=mxgraph.aws3.instance_with_cloudwatch;fillColor=#F58534;gradientColor=none;" vertex="1" parent="1">
          <mxGeometry x="683" y="179" width="60" height="63" as="geometry" />
        </mxCell>
        <mxCell id="1ZHfHGlW6hKa8Q7_D9X9-63" value="" style="outlineConnect=0;dashed=0;verticalLabelPosition=bottom;verticalAlign=top;align=center;html=1;shape=mxgraph.aws3.instance_with_cloudwatch;fillColor=#F58534;gradientColor=none;" vertex="1" parent="1">
          <mxGeometry x="770" y="179" width="60" height="63" as="geometry" />
        </mxCell>
        <mxCell id="1ZHfHGlW6hKa8Q7_D9X9-64" value="" style="outlineConnect=0;dashed=0;verticalLabelPosition=bottom;verticalAlign=top;align=center;html=1;shape=mxgraph.aws3.instance_with_cloudwatch;fillColor=#F58534;gradientColor=none;" vertex="1" parent="1">
          <mxGeometry x="860" y="179" width="60" height="63" as="geometry" />
        </mxCell>
        <mxCell id="1ZHfHGlW6hKa8Q7_D9X9-65" value="" style="outlineConnect=0;dashed=0;verticalLabelPosition=bottom;verticalAlign=top;align=center;html=1;shape=mxgraph.aws3.instance_with_cloudwatch;fillColor=#F58534;gradientColor=none;" vertex="1" parent="1">
          <mxGeometry x="595" y="283.5" width="60" height="63" as="geometry" />
        </mxCell>
        <mxCell id="1ZHfHGlW6hKa8Q7_D9X9-67" value="Meta" style="text;html=1;strokeColor=none;fillColor=none;align=center;verticalAlign=middle;whiteSpace=wrap;rounded=0;" vertex="1" parent="1">
          <mxGeometry x="770" y="242" width="60" height="30" as="geometry" />
        </mxCell>
        <mxCell id="1ZHfHGlW6hKa8Q7_D9X9-69" value="Risk Analyst" style="text;html=1;strokeColor=none;fillColor=none;align=center;verticalAlign=middle;whiteSpace=wrap;rounded=0;" vertex="1" parent="1">
          <mxGeometry x="860" y="253.5" width="60" height="30" as="geometry" />
        </mxCell>
        <mxCell id="1ZHfHGlW6hKa8Q7_D9X9-70" value="Hunter" style="text;html=1;strokeColor=none;fillColor=none;align=center;verticalAlign=middle;whiteSpace=wrap;rounded=0;" vertex="1" parent="1">
          <mxGeometry x="595" y="350" width="60" height="30" as="geometry" />
        </mxCell>
        <mxCell id="1ZHfHGlW6hKa8Q7_D9X9-72" value="" style="sketch=0;pointerEvents=1;shadow=0;dashed=0;html=1;strokeColor=none;fillColor=#00188D;labelPosition=center;verticalLabelPosition=bottom;verticalAlign=top;outlineConnect=0;align=center;shape=mxgraph.office.servers.web_server_orange;" vertex="1" parent="1">
          <mxGeometry x="697.5" y="287" width="54" height="63" as="geometry" />
        </mxCell>
        <mxCell id="1ZHfHGlW6hKa8Q7_D9X9-73" value="Web Server" style="text;html=1;strokeColor=none;fillColor=none;align=center;verticalAlign=middle;whiteSpace=wrap;rounded=0;" vertex="1" parent="1">
          <mxGeometry x="687.5" y="360" width="60" height="30" as="geometry" />
        </mxCell>
        <mxCell id="1ZHfHGlW6hKa8Q7_D9X9-76" value="" style="sketch=0;aspect=fixed;pointerEvents=1;shadow=0;dashed=0;html=1;strokeColor=none;labelPosition=center;verticalLabelPosition=bottom;verticalAlign=top;align=center;fillColor=#00188D;shape=mxgraph.mscae.enterprise.server_generic" vertex="1" parent="1">
          <mxGeometry x="785.3000000000001" y="283.5" width="29.4" height="61.25" as="geometry" />
        </mxCell>
        <mxCell id="1ZHfHGlW6hKa8Q7_D9X9-77" value="Data Analytics Server" style="text;html=1;strokeColor=none;fillColor=none;align=center;verticalAlign=middle;whiteSpace=wrap;rounded=0;" vertex="1" parent="1">
          <mxGeometry x="770" y="360" width="60" height="30" as="geometry" />
        </mxCell>
      </root>
    </mxGraphModel>
  </diagram>
</mxfile>
